<svg viewBox="0 0 800 174" fill="none" xmlns="http://www.w3.org/2000/svg">
<g clip-path="url(#clip0_15_40)">
<path d="M0.266269 76.7991C1.06508 71.633 6.07094 67.5854 11.2898 67.6919C28.8636 67.6919 46.4906 67.6386 64.1176 67.7452C53.7864 95.4397 43.4019 123.134 33.0174 150.829C26.9464 149.87 21.0885 145.876 19.3311 139.804C13.1537 121.004 7.08276 102.257 0.958569 83.5098C0.266269 81.3794 -0.372777 79.036 0.266269 76.7991ZM91.8096 18.2145C93.7268 18.0015 95.6439 17.9482 97.561 18.0015H188.625C194.057 18.0015 199.169 20.6111 202.311 25.0316C204.814 28.5467 205.879 32.8607 205.294 37.1214C204.921 38.8256 204.282 40.5299 203.749 42.2342C192.14 73.3373 180.531 104.44 168.868 135.544C168.016 138.1 166.951 140.603 165.673 143.053C162.744 147.633 157.844 150.509 152.412 150.829C148.099 150.935 143.785 150.722 139.472 150.935C143.785 149.764 147.62 146.462 148.685 142.041C149.111 138.207 147.673 134.478 146.501 130.91C141.336 115.145 136.223 99.3809 131.111 83.6163C129.993 80.4207 129.247 76.9589 127.064 74.2427C123.655 69.9288 118.49 67.4789 113.005 67.5854C96.709 67.5854 80.4665 67.5854 64.1709 67.5854C68.0052 57.5727 71.6797 47.5068 75.4607 37.4409C76.8985 33.7128 78.1234 29.9314 79.9873 26.4163C82.4902 21.9959 86.8038 19.0134 91.8096 18.2145ZM721.803 11.6104C744.489 7.72252 767.122 3.72811 789.808 0C789.701 6.55083 789.701 13.1017 789.808 19.6525C767.175 23.7002 744.435 27.4283 721.803 31.3694C721.856 24.8186 721.803 18.2145 721.803 11.6104Z" fill="#A6C101"/>
<path d="M752.104 61.141C738.95 63.3779 730.057 75.6807 732.027 88.8889C733.305 98.1026 740.335 106.198 749.282 108.701C758.814 111.63 769.944 107.849 775.749 99.7537C781.713 91.9246 782.086 80.4207 776.707 72.1656C771.648 63.9638 761.53 59.4368 752.104 61.141ZM738.684 44.6308C757.11 36.6953 778.518 42.2874 790.766 58.1053C796.518 65.5083 799.766 74.5623 799.979 83.9358C800.033 98.6885 799.979 113.441 799.979 128.194C793.482 128.141 786.985 128.247 780.488 128.141C780.488 126.01 780.488 123.827 780.542 121.696C770.477 128.407 758.015 130.697 746.193 128.034C730.589 124.625 717.542 111.95 713.548 96.5049C707.85 75.3611 718.554 53.2587 738.684 44.6308ZM621.1 61.141C616.946 61.8334 613.058 63.5909 609.757 66.2539C603.047 71.6863 599.745 80.2609 601.023 88.7823C602.301 98.1559 609.543 106.304 618.65 108.701C628.129 111.471 638.993 107.689 644.744 99.6471C650.602 91.8714 651.082 80.5805 645.916 72.3786C640.963 64.0703 630.685 59.3835 621.1 61.141ZM606.348 45.2167C628.342 34.8845 654.596 44.4178 664.874 66.4137C667.537 72.0591 668.922 78.2371 669.028 84.4684C669.081 99.0613 669.028 113.654 669.028 128.194C662.531 128.141 655.981 128.247 649.484 128.141C649.484 125.957 649.484 123.827 649.537 121.643C639.632 128.46 626.851 130.697 615.135 127.981C599.479 124.519 586.325 111.684 582.491 96.132C577.112 75.6274 587.177 54.2707 606.348 45.2167ZM373.15 61.4606C360.049 64.6561 352.061 77.8643 355.256 90.9127C358.452 103.961 371.659 112.003 384.706 108.808C397.806 105.612 405.794 92.4039 402.599 79.3555C401.161 73.4438 397.54 68.2245 392.428 64.8692C386.783 61.141 379.806 59.8628 373.15 61.4606ZM370.54 41.8081C394.451 37.1746 417.563 52.7794 422.25 76.6393C426.936 100.499 411.279 123.667 387.422 128.354C363.511 132.987 340.399 117.382 335.712 93.5224C333.05 79.8349 336.99 65.7213 346.416 55.3891C352.807 48.4122 361.274 43.6189 370.54 41.8081ZM282.352 46.1221C296.091 38.6658 313.772 39.4647 326.766 48.0394C329.428 49.7437 331.878 51.7675 334.061 54.0576C329.375 58.5846 324.795 63.2714 320.215 67.9049C310.683 58.4248 295.293 58.4248 285.76 67.9582C280.701 73.0177 278.145 80.0479 278.731 87.1313C279.263 95.9723 285.228 104.121 293.322 107.583C302.269 111.63 313.505 109.447 320.322 102.363C324.902 106.944 329.588 111.524 334.061 116.211C326.127 123.986 315.316 128.833 304.186 129.046C279.902 129.738 259.666 110.672 258.92 86.3857C258.92 85.9064 258.92 85.4803 258.92 85.001C258.707 69.0766 268.186 53.525 282.352 46.1221ZM681.915 41.0625C688.412 41.0092 694.963 41.0625 701.46 41.0625C701.406 70.6211 701.46 100.233 701.406 129.792C701.247 153.865 681.756 173.357 657.685 173.464C657.685 167.019 657.685 160.575 657.685 154.184C659.709 153.705 662.052 153.811 664.129 153.119C674.194 150.456 681.809 140.763 681.969 130.377C681.862 100.553 682.022 70.8341 681.915 41.0625ZM433.38 40.7962C439.877 40.7962 446.374 40.7962 452.871 40.7962C452.871 43.2994 452.871 45.8025 452.871 48.3057C473.16 34.9377 500.426 40.5299 513.793 60.8215C517.468 66.3604 519.811 72.6449 520.663 79.249C521.355 82.7108 520.982 86.2792 521.089 89.7943C521.089 102.576 521.089 115.412 521.089 128.194H501.545C501.545 113.601 501.545 99.008 501.545 84.4151C501.438 73.9764 493.716 64.23 483.598 61.6204C470.604 58.1053 457.184 65.7213 453.67 78.7164C453.19 80.5805 452.871 82.4445 452.817 84.3619C452.871 98.9548 452.817 113.548 452.817 128.141H433.327C433.38 99.1145 433.38 69.982 433.38 40.7962ZM531.633 28.3336C538.183 28.2804 544.734 28.2804 551.284 28.3336C551.124 32.4878 551.231 36.5887 551.231 40.7429C555.544 40.7429 559.858 40.7429 564.171 40.7429C564.171 47.2405 564.171 53.7913 564.171 60.2889C559.858 60.2889 555.544 60.2889 551.177 60.2889C551.177 68.7038 551.177 77.0654 551.177 85.4803C551.603 98.582 562.307 109.021 575.408 109.127C575.461 115.625 575.408 122.122 575.408 128.62C551.55 128.46 532.166 109.393 531.686 85.5336C531.633 66.5202 531.793 47.4535 531.633 28.3336ZM681.862 8.57463C688.359 8.52138 694.909 8.57463 701.406 8.57463C701.353 15.1787 701.406 21.7828 701.406 28.3869C694.909 28.3336 688.412 28.3869 681.862 28.3869C681.969 21.7828 681.969 15.1787 681.862 8.57463Z" fill="#5A5B5C"/>
<path d="M64.0644 67.6919L64.1176 67.5321C80.4133 67.4788 96.6557 67.5321 112.951 67.5321C118.437 67.4256 123.602 69.9287 127.01 74.1894C129.194 76.9056 129.939 80.3675 131.058 83.563C136.17 99.3276 141.336 115.092 146.448 130.857C147.566 134.478 149.058 138.153 148.631 141.988C147.566 146.408 143.732 149.71 139.419 150.882C134.359 151.202 129.3 150.935 124.188 151.042C95.8037 151.042 67.3661 151.042 38.9818 150.989C37.0114 150.935 34.9878 151.202 33.0174 150.776C43.4551 123.134 53.8396 95.4397 64.0644 67.6919Z" fill="#396600"/>
</g>
<defs>
<clipPath id="clip0_15_40">
<rect width="800" height="173.464" fill="white"/>
</clipPath>
</defs>
</svg>
