<?xml version="1.0" encoding="utf-8"?>
<!-- Generator: Adobe Illustrator 25.0.0, SVG Export Plug-In . SVG Version: 6.00 Build 0)  -->
<svg version="1.1"  xmlns="http://www.w3.org/2000/svg" xmlns:xlink="http://www.w3.org/1999/xlink" 
	 viewBox="100 600 1100 100"  style="enable-background:new 0 0 200 200;" width="250px" height='90px'>
<style type="text/css">
	.st0{fill:#A5C017;}
	.st1{fill:#3A672B;}
	.st2{fill:#5B5C5D;}
</style>
<g>
	<path class="st0" d=" M809.15,551.49c32.19-5.57,64.38-11.17,96.61-16.53c-0.2,9.34-0.05,18.7-0.08,28.05
		c-32.18,5.48-64.37,11.03-96.55,16.55C809.21,570.2,809.18,560.84,809.15,551.49L809.15,551.49z"/>
	<path class="st2" d="M752.46,547.14c9.27-0.08,18.54-0.04,27.81-0.02c-0.07,9.33-0.17,18.66,0.05,27.99
		c-9.29,0.18-18.58,0.08-27.87,0.05C752.58,565.82,752.57,556.48,752.46,547.14 M538.99,575.26c9.29-0.08,18.59-0.08,27.89,0
		c-0.22,5.88-0.05,11.76-0.11,17.65c6.14,0.01,12.27-0.01,18.41,0.01c0.01,9.26,0,18.53,0,27.79c-6.14,0.01-12.28-0.01-18.42,0.01
		c0.01,11.92,0.04,23.85-0.02,35.77c0.31,11.05,6.24,21.75,15.5,27.79c5.6,3.82,12.34,5.58,19.05,5.92
		c-0.2,9.18-0.03,18.38-0.08,27.56c-13.97-0.02-27.87-4.93-38.73-13.73c-14.9-11.84-23.85-30.75-23.39-49.79
		C539.02,627.9,539.22,601.58,538.99,575.26 M399.45,592.91c9.24-0.02,18.47-0.01,27.72,0c0.03,3.56-0.04,7.13,0.01,10.71
		c12.27-8.22,27.56-11.76,42.2-9.86c12.44,1.51,24.35,6.95,33.67,15.31c11.11,9.82,18.55,23.71,20.43,38.43
		c0.96,4.96,0.44,10.02,0.57,15.03c0,18.19,0,36.38,0,54.57c-9.24,0.01-18.49,0.01-27.73,0c0.01-20.72-0.02-41.44,0.02-62.16
		c-0.17-14.84-11.11-28.7-25.47-32.39c-11.68-3.31-24.96,0.17-33.48,8.83c-6.27,6.15-10.05,14.77-10.24,23.56
		c0.05,20.72,0.02,41.45,0.02,62.17c-9.24,0.01-18.48,0.01-27.73,0C399.44,675.72,399.43,634.31,399.45,592.91 M752.47,593.31
		c9.26-0.06,18.51-0.03,27.77-0.02c-0.08,42.01,0,84.02-0.04,126.03c0.02,14.97-5.74,29.83-15.72,40.98
		c-11.54,13.18-28.85,21.08-46.38,21.02c0.02-9.23-0.06-18.46,0.04-27.68c12.68,0.02,24.99-7.54,30.64-18.9
		c2.79-5.42,4.07-11.58,3.77-17.66C752.47,675.82,752.62,634.56,752.47,593.31 M184.37,600.78c18.75-10.36,42.88-9.93,61.26,1.07
		c4.65,2.71,8.88,6.1,12.72,9.87c-6.64,6.52-13.19,13.13-19.74,19.75c-7.66-7.89-19.31-11.54-30.13-9.65
		c-9.3,1.5-17.84,7.05-23.04,14.9c-4.37,6.43-6.38,14.37-5.73,22.11c0.79,12.35,8.93,23.79,20.21,28.81
		c12.77,6.01,29.04,3.02,38.83-7.15c6.57,6.45,12.97,13.07,19.57,19.5c-11.27,11.47-27.13,18.28-43.22,18.43
		c-15.99,0.39-31.99-5.77-43.61-16.76c-13.22-12.15-20.7-30.22-19.85-48.16C152.17,631.75,165.22,610.99,184.37,600.78
		 M310.15,594.39c16.05-3.13,33.29,0.36,46.78,9.62c11.05,7.47,19.61,18.56,23.97,31.16c4.64,13.16,4.67,27.9,0.09,41.09
		c-4.96,14.6-15.6,27.16-29.14,34.53c-21.47,12.09-50.05,9.58-69.03-6.17c-11.42-9.12-19.43-22.37-22.18-36.72
		c-3.55-17.59,0.99-36.59,12.15-50.65C281.96,605.47,295.47,597.17,310.15,594.39 M313.88,622.32c-9.52,2.29-17.91,8.84-22.42,17.54
		c-5.06,9.48-5.31,21.32-0.66,31.02c4.08,8.7,11.93,15.54,21.14,18.3c9.71,3.08,20.71,1.46,29.18-4.16
		c10.57-6.83,16.79-19.74,15.46-32.26c-0.87-9.9-6.27-19.28-14.39-25C334.14,621.96,323.52,619.91,313.88,622.32 M645.08,599.22
		c13.17-6.26,28.57-7.63,42.66-3.86c13.99,3.66,26.52,12.46,34.87,24.25c7.35,10.26,11.39,22.8,11.55,35.41
		c0.04,20.69,0.02,41.39,0.02,62.08c-9.26-0.03-18.52,0.1-27.77-0.07c0.03-3.09,0.01-6.17,0.05-9.25
		c-13.59,9.38-31.08,12.69-47.21,9.38c-23.19-4.44-42.75-23.28-48.18-46.24c-3.53-14.06-1.94-29.32,4.4-42.36
		C621.62,615.81,632.25,605.26,645.08,599.22 M666.09,621.82c-6.07,1.01-11.85,3.68-16.55,7.67c-9.11,7.54-13.82,19.99-11.94,31.67
		c1.77,13.11,11.82,24.58,24.54,28.16c13.41,4.14,28.97-1.04,37.28-12.32c8.58-11.02,9.39-27.3,1.94-39.11
		C694.31,626.03,679.69,619.32,666.09,621.82 M831.14,599.22c12.99-6.18,28.14-7.6,42.07-4.01c10.75,2.71,20.7,8.42,28.54,16.24
		c11.3,11.17,18.15,26.81,18.39,42.74c0.05,20.97,0.02,41.95,0.03,62.92c-9.24-0.08-18.5,0.17-27.74-0.12
		c0.09-3.07,0.03-6.14,0.09-9.19c-13.59,9.36-31.06,12.68-47.19,9.38c-22.63-4.33-41.84-22.34-47.77-44.57
		c-3.69-13.18-2.88-27.56,2.28-40.24C805.63,617.92,817.05,605.84,831.14,599.22 M852.23,621.81c-7.13,1.16-13.84,4.67-18.92,9.78
		c-8.78,8.75-12.26,22.36-8.62,34.23c3.59,12.7,15.03,22.73,28.12,24.5c12.97,2.12,26.8-4.05,33.94-15.08
		c7.67-11.23,7.71-27.02,0.09-38.3C879.61,625.66,865.42,619.42,852.23,621.81L852.23,621.81z"/>
</g>
</svg>
